<svg version="1.1" xmlns="http://www.w3.org/2000/svg" xmlns:xlink="http://www.w3.org/1999/xlink" role="img" width="441" height="99" viewbox="0 0 441 99"><title>v-codemirror</title><desc>Generated by logo.svg, https://github.com/bubkoo/logo.svg</desc><path fill="#cb3837" d="M21.52 64.78Q21.81 64.35 22.64 63.02Q23.46 61.69 24.51 59.74Q25.55 57.80 26.67 55.53Q27.78 53.26 28.72 50.96Q29.66 48.66 30.27 46.60Q30.88 44.55 30.88 43.04Q30.88 41.89 30.59 41.20Q30.30 40.52 29.76 40.16Q29.22 39.80 28.50 39.66Q27.78 39.51 26.99 39.51Q26.56 39.51 26.13 39.58Q25.70 39.66 25.26 39.80Q24.83 39.94 24.58 39.69Q24.33 39.44 24.33 39.30Q24.33 39.01 25.30 38.58Q26.27 38.14 27.96 37.78Q29.66 37.42 31.85 37.17Q34.05 36.92 36.42 36.92Q39.81 36.92 39.81 39.15Q39.81 40.16 38.48 42.61Q37.14 45.06 35.09 48.33Q33.04 51.61 30.56 55.28Q28.07 58.95 25.70 62.37Q23.32 65.79 21.34 68.67Q19.36 71.55 18.35 73.14Q18.14 73.42 16.77 73.42Q16.19 73.42 16.01 73.24Q15.83 73.06 15.69 72.63Q15.04 70.62 14.21 68.17Q13.38 65.72 12.45 63.20Q11.51 60.68 10.54 58.20Q9.57 55.71 8.63 53.55Q6.11 47.50 4.35 45.09Q2.58 42.68 1.07 42.68Q0.64 42.68 0.24 42.82Q-0.15 42.97-0.51 43.11Q-0.66 43.11-0.91 42.79Q-1.16 42.46-1.02 42.32Q-0.94 42.25 0.35 41.38Q1.65 40.52 3.38 39.48Q5.10 38.43 6.87 37.57Q8.63 36.70 9.71 36.70Q11.37 36.70 12.74 39.76Q14.10 42.82 15.98 48.22L21.52 64.78ZM62.78 48.08Q61.98 49.30 61.26 51.03Q60.54 52.76 59.90 54.13Q56.87 53.91 54.75 53.91Q52.62 53.91 50.75 53.91Q48.66 53.91 46.25 54.06Q43.84 54.20 42.62 54.34Q43.34 52.90 44.16 51.14Q44.99 49.38 45.78 47.94Q46.94 48.22 49.31 48.33Q51.69 48.44 53.99 48.44Q54.93 48.44 56.12 48.44Q57.30 48.44 58.53 48.40Q59.75 48.37 60.87 48.30Q61.98 48.22 62.78 48.08ZM100.72 40.09Q100.58 40.52 99.89 41.42Q99.21 42.32 98.27 43.29Q97.34 44.26 96.29 45.16Q95.25 46.06 94.46 46.50Q93.95 46.71 93.84 46.35Q93.74 45.99 93.74 45.63Q93.74 45.06 93.12 44.19Q92.51 43.33 91.40 42.50Q90.28 41.67 88.77 41.10Q87.26 40.52 85.46 40.52Q82.36 40.52 80.42 43.87Q78.47 47.22 78.47 52.76Q78.47 56.14 79.52 58.84Q80.56 61.54 82.40 63.38Q84.23 65.22 86.82 66.19Q89.42 67.16 92.44 67.16Q96.54 67.16 98.99 66.12Q101.44 65.07 103.02 63.70Q103.10 63.70 103.13 63.63Q103.17 63.56 103.24 63.56Q103.60 63.56 103.74 63.81Q103.89 64.06 103.89 64.42Q103.89 64.71 103.74 64.86Q102.66 65.72 100.76 67.16Q98.85 68.60 96.40 70.00Q93.95 71.41 91.29 72.42Q88.62 73.42 86.03 73.42Q78.62 73.42 74.48 69.10Q70.34 64.78 70.34 57.30Q70.34 51.61 72.53 47.72Q74.73 43.83 77.93 41.49Q81.14 39.15 84.74 38.14Q88.34 37.14 91.07 37.14Q93.30 37.14 95.07 37.46Q96.83 37.78 98.09 38.25Q99.35 38.72 100.04 39.22Q100.72 39.73 100.72 40.09ZM131.32 67.02Q130.53 67.66 129.16 68.74Q127.79 69.82 125.99 70.90Q124.19 71.98 122.03 72.74Q119.87 73.50 117.50 73.50Q113.90 73.50 111.09 72.24Q108.28 70.98 106.37 68.85Q104.46 66.73 103.49 63.85Q102.52 60.97 102.52 57.73Q102.52 53.91 103.67 50.96Q104.82 48.01 106.52 45.81Q108.21 43.62 110.15 42.14Q112.10 40.66 113.68 39.80Q114.40 39.37 115.52 38.86Q116.63 38.36 117.96 37.93Q119.30 37.50 120.84 37.17Q122.39 36.85 124.05 36.85Q127.14 36.85 130.06 37.64Q132.98 38.43 135.21 40.12Q137.44 41.82 138.81 44.48Q140.18 47.14 140.18 50.89Q140.18 53.91 139.06 56.58Q137.94 59.24 136.43 61.33Q134.92 63.42 133.44 64.89Q131.97 66.37 131.32 67.02M123.18 68.17Q127.29 68.17 129.48 65.07Q131.68 61.98 131.68 55.57Q131.68 52.33 130.78 49.56Q129.88 46.78 128.26 44.70Q126.64 42.61 124.48 41.42Q122.32 40.23 119.80 40.23Q118.00 40.23 116.38 41.17Q114.76 42.10 113.54 43.87Q112.31 45.63 111.59 48.15Q110.87 50.67 110.87 53.84Q110.87 57.22 111.92 59.89Q112.96 62.55 114.69 64.39Q116.42 66.22 118.61 67.20Q120.81 68.17 123.18 68.17ZM171.42 67.02Q170.78 67.66 169.34 68.74Q167.90 69.82 165.95 70.87Q164.01 71.91 161.74 72.67Q159.47 73.42 157.17 73.42Q154.79 73.42 152.42 72.34Q150.04 71.26 148.13 69.21Q146.22 67.16 145.07 64.28Q143.92 61.40 143.92 57.80Q143.92 53.12 145.54 49.30Q147.16 45.49 150.29 42.82Q153.42 40.16 157.92 38.72Q162.42 37.28 168.26 37.28Q169.26 37.28 170.20 37.28Q171.14 37.28 171.93 37.35Q171.93 36.70 171.93 35.01Q171.93 33.32 171.89 31.52Q171.86 29.72 171.82 28.21Q171.78 26.70 171.78 26.34Q171.50 23.46 170.81 22.30Q170.13 21.15 168.04 21.15Q167.75 21.15 167.72 20.50Q167.68 19.86 168.18 19.50Q168.76 19.14 169.48 18.96Q170.20 18.78 171.64 18.78Q174.38 18.78 176.21 18.74Q178.05 18.70 179.24 18.60Q180.42 18.49 181.14 18.31Q181.86 18.13 182.37 17.91Q182.73 17.84 182.98 18.09Q183.23 18.34 183.34 18.74Q183.45 19.14 183.38 19.50Q183.30 19.86 182.94 19.93Q182.15 20.07 181.76 20.25Q181.36 20.43 181.00 20.94Q180.64 21.44 180.35 23.60Q180.06 25.76 179.78 28.93Q179.49 32.10 179.27 35.95Q179.06 39.80 178.91 43.69Q178.77 47.58 178.66 51.25Q178.55 54.92 178.55 57.66Q178.55 62.91 179.70 65.40Q180.86 67.88 183.23 67.88Q184.10 67.88 185.14 67.59Q186.18 67.30 187.08 66.91Q187.98 66.51 188.74 66.12Q189.50 65.72 189.86 65.43Q190.22 65.14 190.50 65.79Q190.79 66.44 190.43 66.66Q189.57 67.16 187.73 68.13Q185.90 69.10 183.66 70.18Q180.93 71.55 178.12 72.63Q175.31 73.71 173.58 73.71Q172.29 73.71 171.82 73.28Q171.35 72.85 171.35 71.91Q171.35 71.62 171.35 70.94Q171.35 70.26 171.39 69.50Q171.42 68.74 171.42 68.06Q171.42 67.38 171.42 67.02M170.49 64.57Q171.06 63.78 171.35 62.73Q171.64 61.69 171.78 59.89Q171.93 58.38 171.93 56.18Q171.93 53.98 171.93 52.33Q171.93 50.67 171.89 48.80Q171.86 46.93 171.78 46.21Q171.64 44.98 170.78 43.90Q169.91 42.82 168.54 42.03Q167.18 41.24 165.34 40.77Q163.50 40.30 161.49 40.30Q159.54 40.30 157.82 40.95Q156.09 41.60 154.83 43.04Q153.57 44.48 152.85 46.75Q152.13 49.02 152.13 52.33Q152.13 55.71 153.06 58.48Q154.00 61.26 155.66 63.27Q157.31 65.29 159.62 66.40Q161.92 67.52 164.66 67.52Q165.74 67.52 166.67 67.20Q167.61 66.87 168.36 66.40Q169.12 65.94 169.70 65.43Q170.27 64.93 170.49 64.57ZM220.02 64.35Q219.23 65.22 217.58 66.73Q215.92 68.24 213.58 69.75Q211.24 71.26 208.36 72.34Q205.48 73.42 202.24 73.42Q199.29 73.42 196.48 72.52Q193.67 71.62 191.44 69.79Q189.21 67.95 187.88 65.11Q186.54 62.26 186.54 58.30Q186.54 55.06 186.98 52.72Q187.41 50.38 188.13 48.62Q188.85 46.86 189.75 45.60Q190.65 44.34 191.58 43.33Q192.74 42.03 194.39 40.88Q196.05 39.73 197.96 38.79Q199.86 37.86 201.99 37.32Q204.11 36.78 206.27 36.78Q210.16 36.78 212.36 38.07Q214.55 39.37 214.55 41.67Q214.55 43.11 213.69 44.34Q214.41 44.12 215.52 43.62Q216.64 43.11 217.79 42.57Q218.94 42.03 219.84 41.60Q220.74 41.17 221.03 40.95Q221.18 40.81 221.36 40.84Q221.54 40.88 221.54 41.10Q221.54 42.03 221.18 42.64Q220.82 43.26 220.31 43.62Q219.16 44.34 217.00 45.42Q214.84 46.50 212.21 47.68Q209.58 48.87 206.78 50.06Q203.97 51.25 201.48 52.33Q199.00 53.41 197.16 54.24Q195.33 55.06 194.68 55.42Q194.68 57.87 195.65 60.00Q196.62 62.12 198.35 63.70Q200.08 65.29 202.49 66.19Q204.90 67.09 207.78 67.09Q210.38 67.09 212.46 66.55Q214.55 66.01 215.99 65.32Q217.43 64.64 218.26 64.10Q219.09 63.56 219.16 63.56Q219.45 63.56 219.74 63.81Q220.02 64.06 220.02 64.35M194.68 53.34Q195.90 52.90 197.45 52.29Q199.00 51.68 200.48 50.96Q201.95 50.24 203.18 49.59Q204.40 48.94 205.05 48.44Q206.34 47.50 206.34 45.27Q206.34 44.41 206.02 43.47Q205.70 42.54 205.05 41.78Q204.40 41.02 203.46 40.56Q202.53 40.09 201.38 40.09Q200.37 40.09 199.22 40.77Q198.06 41.46 197.06 43.00Q196.05 44.55 195.36 47.11Q194.68 49.66 194.68 53.34ZM287.42 66.51Q287.63 66.51 287.70 66.76Q287.78 67.02 287.78 67.38Q287.78 67.74 287.63 67.84Q287.49 67.95 287.34 68.10Q286.84 68.38 284.93 69.32Q283.02 70.26 280.68 71.23Q278.34 72.20 276.08 72.96Q273.81 73.71 272.66 73.71Q271.65 73.71 270.75 73.28Q269.85 72.85 269.99 71.91Q270.14 71.34 270.32 70.18Q270.50 69.03 270.64 67.38Q270.78 65.29 270.96 62.55Q271.14 59.82 271.14 56.50Q271.14 52.62 270.64 50.06Q270.14 47.50 269.20 45.99Q268.26 44.48 266.90 43.87Q265.53 43.26 263.73 43.26Q262.07 43.26 260.92 43.80Q259.77 44.34 258.90 44.98Q257.32 46.21 256.42 48.12Q255.52 50.02 255.30 53.12Q255.23 53.91 255.20 54.70Q255.16 55.50 255.12 56.43Q255.09 57.37 255.05 58.52Q255.02 59.67 255.02 61.26Q255.02 65.50 255.70 67.16Q256.38 68.82 258.04 68.82Q258.62 68.82 258.76 68.78Q258.90 68.74 259.34 68.67Q259.48 68.82 259.62 69.03Q259.84 69.39 259.55 69.82Q259.19 70.26 257.82 70.94Q256.46 71.62 254.80 72.20Q253.14 72.78 251.56 73.21Q249.98 73.64 249.18 73.64Q248.18 73.64 247.35 73.39Q246.52 73.14 246.52 72.78Q246.52 72.34 246.81 71.77Q247.02 71.41 247.24 70.04Q247.46 68.67 247.64 66.51Q247.82 64.35 247.96 61.51Q248.10 58.66 248.10 55.35Q248.10 53.62 247.92 51.54Q247.74 49.45 247.02 47.61Q246.30 45.78 244.90 44.52Q243.50 43.26 241.05 43.26Q239.61 43.26 238.46 43.65Q237.30 44.05 236.51 44.62Q234.93 45.85 233.81 47.65Q232.70 49.45 232.34 52.76Q232.19 54.27 232.05 55.89Q231.90 57.51 231.90 59.60Q231.90 62.34 232.05 64.14Q232.19 65.94 232.55 66.98Q232.91 68.02 233.42 68.42Q233.92 68.82 234.71 68.82Q235.50 68.82 235.79 68.67Q236.15 68.53 236.30 69.10Q236.44 69.68 236.22 69.82Q235.94 70.11 234.71 70.72Q233.49 71.34 231.90 71.98Q230.32 72.63 228.66 73.14Q227.01 73.64 225.86 73.64Q224.63 73.64 223.95 73.35Q223.26 73.06 223.26 72.70Q223.26 72.63 223.41 72.24Q223.55 71.84 223.62 71.55Q223.91 69.32 224.16 67.41Q224.42 65.50 224.52 63.27Q224.63 61.04 224.70 58.16Q224.78 55.28 224.78 51.18Q224.78 47.22 223.52 45.34Q222.26 43.47 220.89 43.47Q220.31 43.47 219.92 43.58Q219.52 43.69 219.16 43.76Q218.73 43.83 218.73 43.33L218.73 42.82Q218.80 42.75 220.17 41.82Q221.54 40.88 223.41 39.80Q225.28 38.72 227.30 37.82Q229.31 36.92 230.61 36.92Q231.47 36.92 232.08 37.42Q232.70 37.93 232.70 39.30Q232.70 39.94 232.66 40.74Q232.62 41.53 232.59 42.39Q232.55 43.26 232.48 44.08Q232.41 44.91 232.41 45.49Q233.42 44.55 234.96 43.04Q236.51 41.53 238.46 40.16Q240.40 38.79 242.67 37.78Q244.94 36.78 247.46 36.78Q250.77 36.78 252.86 38.72Q254.94 40.66 255.09 45.49Q256.24 44.41 257.90 42.90Q259.55 41.38 261.60 40.02Q263.66 38.65 265.96 37.71Q268.26 36.78 270.64 36.78Q278.99 36.78 278.99 45.63Q278.99 47.07 278.85 48.94Q278.70 50.82 278.49 52.87Q278.27 54.92 278.13 56.94Q277.98 58.95 277.98 60.61Q277.98 68.10 281.94 68.10Q282.59 68.10 283.38 67.92Q284.18 67.74 284.97 67.48Q285.76 67.23 286.41 66.98Q287.06 66.73 287.34 66.51L287.42 66.51ZM298.22 60.25Q298.22 61.76 298.29 63.16Q298.36 64.57 298.79 65.58Q299.22 66.58 300.09 67.20Q300.95 67.81 302.54 67.81Q303.33 67.81 304.34 67.63Q305.34 67.45 306.24 67.16Q307.14 66.87 307.83 66.58Q308.51 66.30 308.66 66.15Q308.87 65.94 308.94 66.15Q309.02 66.37 308.98 66.69Q308.94 67.02 308.80 67.34Q308.66 67.66 308.44 67.81Q307.72 68.17 305.92 69.10Q304.12 70.04 301.67 71.05Q299.37 72.06 297.17 72.74Q294.98 73.42 293.54 73.42Q291.88 73.42 290.94 72.42Q290.01 71.41 290.01 69.90Q290.01 69.39 290.04 69.03Q290.08 68.67 290.15 68.10Q290.22 67.38 290.40 65.47Q290.58 63.56 290.76 61.18Q290.94 58.81 291.09 56.40Q291.23 53.98 291.23 52.26L291.23 49.74Q291.23 47.86 291.02 46.42Q290.80 44.98 290.30 44.19Q289.94 43.69 289.40 43.36Q288.86 43.04 288.06 43.04Q287.63 43.04 287.20 43.22Q286.77 43.40 286.55 43.40Q286.41 43.40 286.08 42.97Q285.76 42.54 286.12 42.32Q286.62 41.96 288.21 41.17Q289.79 40.38 291.66 39.44Q293.68 38.43 295.55 37.68Q297.42 36.92 298.22 36.92Q299.01 36.92 299.30 37.39Q299.58 37.86 299.58 38.43L299.58 38.72Q299.58 39.44 299.37 41.02Q299.15 42.61 298.90 44.91Q298.65 47.22 298.43 50.24Q298.22 53.26 298.22 56.79L298.22 60.25M295.34 22.81Q295.70 22.88 296.52 23.60Q297.35 24.32 298.22 25.26Q299.08 26.19 299.73 27.06Q300.38 27.92 300.38 28.21Q300.38 28.57 299.51 29.29Q298.65 30.01 297.53 30.76Q296.42 31.52 295.37 32.10Q294.33 32.67 293.90 32.67Q293.68 32.67 292.85 31.99Q292.02 31.30 291.16 30.44Q290.30 29.58 289.61 28.75Q288.93 27.92 288.93 27.63Q288.93 27.27 289.86 26.52Q290.80 25.76 291.92 24.93Q293.03 24.10 294.08 23.49Q295.12 22.88 295.34 22.81ZM339.98 42.18Q339.18 42.82 338.10 43.80Q337.02 44.77 335.84 45.67Q334.65 46.57 333.42 47.22Q332.20 47.86 331.05 47.86Q330.04 47.86 329.25 47.40Q328.46 46.93 327.77 46.39Q327.09 45.85 326.44 45.38Q325.79 44.91 325.07 44.91Q323.13 44.91 321.80 46.50Q320.46 48.08 319.64 50.53Q318.81 52.98 318.41 55.86Q318.02 58.74 318.02 61.40Q318.02 63.63 318.20 65.04Q318.38 66.44 318.74 67.27Q319.10 68.10 319.71 68.38Q320.32 68.67 321.18 68.67Q322.12 68.67 323.20 68.38Q323.42 68.31 323.52 68.67Q323.63 69.03 323.63 69.25Q323.63 69.39 323.42 69.57Q323.20 69.75 323.13 69.75Q321.54 70.40 319.89 71.16Q318.23 71.91 317.15 72.42Q316.14 72.85 314.74 73.35Q313.34 73.86 312.33 73.86Q311.18 73.86 310.42 73.50Q309.66 73.14 309.66 72.78Q309.66 72.42 309.84 72.13Q310.02 71.84 310.17 71.05Q310.31 69.97 310.49 68.49Q310.67 67.02 310.85 65.29Q311.03 63.56 311.14 61.72Q311.25 59.89 311.25 58.09Q311.25 54.06 311.00 51.25Q310.74 48.44 310.10 46.71Q309.45 44.98 308.33 44.23Q307.22 43.47 305.49 43.47Q305.13 43.47 304.84 43.47Q304.55 43.47 304.26 43.54Q303.83 43.54 303.83 43.11Q303.83 42.68 304.26 42.46Q305.06 41.96 306.71 40.99Q308.37 40.02 310.13 39.12Q311.90 38.22 313.55 37.50Q315.21 36.78 316.00 36.78Q316.94 36.78 317.58 37.39Q318.23 38.00 318.56 38.94Q318.88 39.87 319.02 41.06Q319.17 42.25 319.17 43.40Q319.17 44.26 319.13 45.20Q319.10 46.14 319.10 47.22Q322.34 42.46 324.93 39.84Q327.52 37.21 329.82 37.21Q330.69 37.21 331.52 37.93Q332.34 38.65 333.28 39.55Q334.22 40.45 335.22 41.17Q336.23 41.89 337.31 41.89Q338.25 41.89 338.68 41.67Q339.11 41.46 339.40 41.31Q339.98 41.31 339.98 42.10L339.98 42.18ZM372.02 42.18Q371.22 42.82 370.14 43.80Q369.06 44.77 367.88 45.67Q366.69 46.57 365.46 47.22Q364.24 47.86 363.09 47.86Q362.08 47.86 361.29 47.40Q360.50 46.93 359.81 46.39Q359.13 45.85 358.48 45.38Q357.83 44.91 357.11 44.91Q355.17 44.91 353.84 46.50Q352.50 48.08 351.68 50.53Q350.85 52.98 350.45 55.86Q350.06 58.74 350.06 61.40Q350.06 63.63 350.24 65.04Q350.42 66.44 350.78 67.27Q351.14 68.10 351.75 68.38Q352.36 68.67 353.22 68.67Q354.16 68.67 355.24 68.38Q355.46 68.31 355.56 68.67Q355.67 69.03 355.67 69.25Q355.67 69.39 355.46 69.57Q355.24 69.75 355.17 69.75Q353.58 70.40 351.93 71.16Q350.27 71.91 349.19 72.42Q348.18 72.85 346.78 73.35Q345.38 73.86 344.37 73.86Q343.22 73.86 342.46 73.50Q341.70 73.14 341.70 72.78Q341.70 72.42 341.88 72.13Q342.06 71.84 342.21 71.05Q342.35 69.97 342.53 68.49Q342.71 67.02 342.89 65.29Q343.07 63.56 343.18 61.72Q343.29 59.89 343.29 58.09Q343.29 54.06 343.04 51.25Q342.78 48.44 342.14 46.71Q341.49 44.98 340.37 44.23Q339.26 43.47 337.53 43.47Q337.17 43.47 336.88 43.47Q336.59 43.47 336.30 43.54Q335.87 43.54 335.87 43.11Q335.87 42.68 336.30 42.46Q337.10 41.96 338.75 40.99Q340.41 40.02 342.17 39.12Q343.94 38.22 345.59 37.50Q347.25 36.78 348.04 36.78Q348.98 36.78 349.62 37.39Q350.27 38.00 350.60 38.94Q350.92 39.87 351.06 41.06Q351.21 42.25 351.21 43.40Q351.21 44.26 351.17 45.20Q351.14 46.14 351.14 47.22Q354.38 42.46 356.97 39.84Q359.56 37.21 361.86 37.21Q362.73 37.21 363.56 37.93Q364.38 38.65 365.32 39.55Q366.26 40.45 367.26 41.17Q368.27 41.89 369.35 41.89Q370.29 41.89 370.72 41.67Q371.15 41.46 371.44 41.31Q372.02 41.31 372.02 42.10L372.02 42.18ZM397.14 67.02Q396.35 67.66 394.98 68.74Q393.62 69.82 391.82 70.90Q390.02 71.98 387.86 72.74Q385.70 73.50 383.32 73.50Q379.72 73.50 376.91 72.24Q374.10 70.98 372.20 68.85Q370.29 66.73 369.32 63.85Q368.34 60.97 368.34 57.73Q368.34 53.91 369.50 50.96Q370.65 48.01 372.34 45.81Q374.03 43.62 375.98 42.14Q377.92 40.66 379.50 39.80Q380.22 39.37 381.34 38.86Q382.46 38.36 383.79 37.93Q385.12 37.50 386.67 37.17Q388.22 36.85 389.87 36.85Q392.97 36.85 395.88 37.64Q398.80 38.43 401.03 40.12Q403.26 41.82 404.63 44.48Q406.00 47.14 406.00 50.89Q406.00 53.91 404.88 56.58Q403.77 59.24 402.26 61.33Q400.74 63.42 399.27 64.89Q397.79 66.37 397.14 67.02M389.01 68.17Q393.11 68.17 395.31 65.07Q397.50 61.98 397.50 55.57Q397.50 52.33 396.60 49.56Q395.70 46.78 394.08 44.70Q392.46 42.61 390.30 41.42Q388.14 40.23 385.62 40.23Q383.82 40.23 382.20 41.17Q380.58 42.10 379.36 43.87Q378.14 45.63 377.42 48.15Q376.70 50.67 376.70 53.84Q376.70 57.22 377.74 59.89Q378.78 62.55 380.51 64.39Q382.24 66.22 384.44 67.20Q386.63 68.17 389.01 68.17ZM443.22 42.18Q442.43 42.82 441.35 43.80Q440.27 44.77 439.08 45.67Q437.90 46.57 436.67 47.22Q435.45 47.86 434.30 47.86Q433.29 47.86 432.50 47.40Q431.70 46.93 431.02 46.39Q430.34 45.85 429.69 45.38Q429.04 44.91 428.32 44.91Q426.38 44.91 425.04 46.50Q423.71 48.08 422.88 50.53Q422.06 52.98 421.66 55.86Q421.26 58.74 421.26 61.40Q421.26 63.63 421.44 65.04Q421.62 66.44 421.98 67.27Q422.34 68.10 422.96 68.38Q423.57 68.67 424.43 68.67Q425.37 68.67 426.45 68.38Q426.66 68.31 426.77 68.67Q426.88 69.03 426.88 69.25Q426.88 69.39 426.66 69.57Q426.45 69.75 426.38 69.75Q424.79 70.40 423.14 71.16Q421.48 71.91 420.40 72.42Q419.39 72.85 417.99 73.35Q416.58 73.86 415.58 73.86Q414.42 73.86 413.67 73.50Q412.91 73.14 412.91 72.78Q412.91 72.42 413.09 72.13Q413.27 71.84 413.42 71.05Q413.56 69.97 413.74 68.49Q413.92 67.02 414.10 65.29Q414.28 63.56 414.39 61.72Q414.50 59.89 414.50 58.09Q414.50 54.06 414.24 51.25Q413.99 48.44 413.34 46.71Q412.70 44.98 411.58 44.23Q410.46 43.47 408.74 43.47Q408.38 43.47 408.09 43.47Q407.80 43.47 407.51 43.54Q407.08 43.54 407.08 43.11Q407.08 42.68 407.51 42.46Q408.30 41.96 409.96 40.99Q411.62 40.02 413.38 39.12Q415.14 38.22 416.80 37.50Q418.46 36.78 419.25 36.78Q420.18 36.78 420.83 37.39Q421.48 38.00 421.80 38.94Q422.13 39.87 422.27 41.06Q422.42 42.25 422.42 43.40Q422.42 44.26 422.38 45.20Q422.34 46.14 422.34 47.22Q425.58 42.46 428.18 39.84Q430.77 37.21 433.07 37.21Q433.94 37.21 434.76 37.93Q435.59 38.65 436.53 39.55Q437.46 40.45 438.47 41.17Q439.48 41.89 440.56 41.89Q441.50 41.89 441.93 41.67Q442.36 41.46 442.65 41.31Q443.22 41.31 443.22 42.10L443.22 42.18Z"></path></svg>